<?xml version="1.0" encoding="UTF-8" standalone="no"?>
<svg
   version="1.1"
   width="98px"
   height="114px"
   id="svg240"
   xmlns="http://www.w3.org/2000/svg"
   xmlns:svg="http://www.w3.org/2000/svg">
  <defs
     id="defs244" />
  <path
     fill="#112d5a"
     d="M49.363448015713 0L98.726896031426 28.5L98.726896031426 85.5L49.363448015713 114L0 85.5L0 28.5Z"
     id="path238"
     style="fill:#000000" />
  <path
     style="fill:none;stroke:#ff0000;stroke-opacity:1;stroke-width:2;stroke-dasharray:none"
     d="m 25.097015,14.462687 c 39.843284,45.089552 30.910448,71.888059 30.910448,71.888059 0,0 -14.604478,21.694034 -29.208956,-10.067164 C 12.19403,44.522388 97.977612,53.880597 97.977612,53.880597"
     id="path3063" />
  <path
     style="fill:none;stroke:#ff0000;stroke-width:2;stroke-dasharray:none;stroke-opacity:1"
     d="m 0.56716418,56.432836 c 0,0 35.02238782,-60.9701494 54.30596982,-23.962687 19.283582,37.007463 40.552239,65.649254 5.529851,64.373135 -35.022388,-1.27612 -37.858209,1.985074 -37.858209,1.985074"
     id="path3065" />
  <path
     style="fill:none;stroke:#ff0000;stroke-width:2;stroke-dasharray:none;stroke-opacity:1"
     d="m 74.440299,14.746269 c 0,0 -26.656717,26.656716 -18.291045,45.656716 8.365671,19 18.858209,38.283582 18.858209,38.283582"
     id="path3067" />
</svg>
